<svg xmlns="http://www.w3.org/2000/svg" viewBox="0 0 66.64 66.64"><defs><style>.cls-1{fill:#db0f54;}.cls-2{fill:#fff;}</style></defs><title>Asset 1</title><g id="Layer_2" data-name="Layer 2"><g id="Layer_1-2" data-name="Layer 1"><circle class="cls-1" cx="33.32" cy="33.32" r="33.32"/><path class="cls-2" d="M50.61,23.84V43.31a.89.89,0,0,1-.28.62.87.87,0,0,1-1.25,0l-9.72-9.86a.87.87,0,0,1,0-1.25L49,23.27a.89.89,0,0,1,.68-.31A.88.88,0,0,1,50.61,23.84Zm-33.08-.63,9.73,9.61a.89.89,0,0,1,0,1.25l-9.67,9.84a1,1,0,0,1-.68.31.91.91,0,0,1-.88-.91V23.84a.85.85,0,0,1,.26-.63A.88.88,0,0,1,17.53,23.21Zm.94-2.55H48.15a1,1,0,0,1,.65.26.92.92,0,0,1,0,1.27L36.38,34.58l0,0a11,11,0,0,1-1.55,1.33,2.77,2.77,0,0,1-1.48.57,2.85,2.85,0,0,1-1.5-.57,11.57,11.57,0,0,1-1.53-1.33L17.9,22.22a.86.86,0,0,1-.31-.68A.89.89,0,0,1,18.47,20.66ZM39,34.72l9.75,9.75a1,1,0,0,1,.26.63.89.89,0,0,1-.88.88H18.61a.79.79,0,0,1-.68-.26.84.84,0,0,1,0-1.25l9.72-9.72,0,0a.89.89,0,0,1,1.25,0l1.58,1.56a4.41,4.41,0,0,0,1.22.85h.06a3.73,3.73,0,0,0,1.53.28,3.92,3.92,0,0,0,1.53-.28,3.21,3.21,0,0,0,1.25-.85l1.59-1.53v0A.92.92,0,0,1,39,34.72Z"/></g></g></svg>