<?xml version="1.0" encoding="utf-8"?>
<!-- Generator: Adobe Illustrator 23.0.2, SVG Export Plug-In . SVG Version: 6.00 Build 0)  -->
<svg version="1.1" id="Layer_2" xmlns="http://www.w3.org/2000/svg" xmlns:xlink="http://www.w3.org/1999/xlink" x="0px" y="0px"
	 viewBox="0 0 359.09 155.22" style="enable-background:new 0 0 359.09 155.22;" xml:space="preserve">
<style type="text/css">
	.st0{fill:none;}
	.st1{fill:#F08D21;}
	.st2{fill:#28006A;}
	.st3{fill:#FFFFFF;}
</style>
<g>
	<g>
		<path class="st0" d="M272.77,89.9v0.28c0,5.2,3.94,8.29,9.42,8.29c7.73,0,13.21-4.92,13.21-12.51v-3.51
			c-2.67-1.12-6.47-1.97-10.4-1.97C277.27,80.48,272.77,84.28,272.77,89.9z"/>
		<path class="st0" d="M326.75,71.39c-1.29,3.34-3.08,6.48-3.97,10.03c0-0.01,0.01-0.02,0.01-0.03c0.91-2.3,1.81-4.61,2.74-6.9
			c0.49-1.2,1-2.39,1.5-3.58c-0.04,0.02-0.07,0.05-0.1,0.08C326.84,71.09,326.8,71.26,326.75,71.39z"/>
		<path class="st0" d="M326.16,67.87c-0.16,0.42-0.33,0.84-0.5,1.26c0.34-0.56,0.67-1.13,1-1.69c-0.13,0.06-0.27,0.13-0.39,0.21
			C326.21,67.68,326.19,67.79,326.16,67.87z"/>
		<path class="st0" d="M59.3,59.06c-10.22,0-17.46,7.08-17.46,16.51v0.31c0,9.44,7.23,16.35,17.46,16.35
			c10.06,0,17.3-7.08,17.3-16.51v-0.31C76.59,65.97,69.36,59.06,59.3,59.06z"/>
		<path class="st1" d="M76.12,47.73c-6.45-6.76-14-11.95-26.73-11.95c-19.66,0-36.8,15.1-36.8,39.63v0.31
			c0,24.37,16.83,39.47,37.74,39.47c12.42,0,20.29-5.82,26.26-12.74v3.3c0,13.52-7.39,20.92-22.33,20.92
			c-11.48,0-20.6-2.99-29.72-8.02l-9.59,19.81c12.27,6.29,26.1,9.75,42.62,9.75c17.77,0,29.72-4.25,37.43-11.95
			c7.55-7.55,11.01-18.4,11.01-33.97V37.67H76.12V47.73z M76.59,75.72c0,9.44-7.23,16.51-17.3,16.51
			c-10.22,0-17.46-6.92-17.46-16.35v-0.31c0-9.44,7.23-16.51,17.46-16.51c10.06,0,17.3,6.92,17.3,16.35V75.72z"/>
		<path class="st1" d="M167.63,78.66c0,8.29-4.78,12.79-11.11,12.79c-6.47,0-10.82-4.5-10.82-12.79V37.47h-26.71v49.76
			c0,17.29,9.7,27.97,25.86,27.97c10.82,0,17.85-5.76,22.77-12.09v10.4h26.71V37.47h-26.71V78.66z"/>
		<rect x="208.68" y="10.9" class="st1" width="27.83" height="19.68"/>
		<rect x="209.24" y="37.47" class="st1" width="26.71" height="76.05"/>
		<path class="st1" d="M321.41,73.41V69.8c0-4.66-0.45-8.78-1.44-12.41c-0.94,0.22-1.97,0.24-3.07,0.03
			c-5.89-1.09-11.55-2.98-17.1-5.2c-1.35-0.53-2.72-1.03-4.06-1.61c-4.14-1.78-8.12-3.85-11.93-6.24c-2.56-1.61-3.74-4.45-2.9-7.02
			c0.11-0.32,0.21-0.65,0.32-0.97c-11.46,0.35-19.83,2.62-27.71,5.86L259,61.08c6.75-2.67,12.93-4.22,20.95-4.22
			c10.26,0,15.18,4.5,15.18,12.37v1.27c-4.36-1.55-11.25-2.95-18.27-2.95c-17.85,0-29.8,8.15-29.8,23.9v0.28
			c0,15.18,11.11,23.48,25.58,23.48c9.98,0,17.15-3.8,22.35-9.56v7.87h26.43V82.11 M295.41,85.97c0,7.59-5.48,12.51-13.21,12.51
			c-5.48,0-9.42-3.09-9.42-8.29V89.9c0-5.62,4.5-9.42,12.23-9.42c3.94,0,7.73,0.84,10.4,1.97V85.97z"/>
		<path class="st1" d="M321.19,80.43c-0.53-0.3-0.95-0.75-1.24-1.28c-0.03,1.09,0.53,2.25,1.47,2.95v-2.43
			C321.33,79.93,321.26,80.18,321.19,80.43z"/>
		<path class="st2" d="M336.85,53.9c-0.03-0.2-0.08-0.4-0.14-0.6C336.68,53.49,336.72,53.68,336.85,53.9z"/>
		<path class="st2" d="M322.78,81.43c-0.01,0.04-0.03,0.08-0.04,0.12c0,0,0,0,0.01,0C322.76,81.51,322.77,81.47,322.78,81.43z"/>
		<path class="st2" d="M357.25,36.48"/>
		<g>
			<g>
				<path class="st2" d="M350.91,35.87c-0.27-0.36-0.62-0.69-0.96-0.99c-9.89-8.62-19.79-17.24-29.67-25.87
					c-1.59-1.39-3.38-2.12-5.49-2.19c-13.24-0.44-26.48-0.89-39.72-1.33c-0.33-0.01-0.67,0-1.01,0.01
					c-0.57,0.03-1.02,0.22-1.33,0.63c-0.1,0.14-0.19,0.3-0.26,0.48c-0.28,0.74-0.1,1.37,0.47,1.88c1.26,1.13,2.54,2.26,3.82,3.37
					c8.93,7.78,17.86,15.56,26.78,23.35c1.62,1.41,3.46,2.13,5.61,2.19c9.37,0.29,18.73,0.61,28.1,0.92
					c0.23,0.01,2.27,0.09,2.83,0.1c0,0,0.9,0.04,1.21,0.05c2.47,0.1,4.94,0.19,7.42,0.26c0.49,0.01,1.02-0.03,1.48-0.2
					c0.7-0.26,1.11-0.72,1.19-1.26C351.42,36.84,351.28,36.35,350.91,35.87z"/>
				<path class="st2" d="M327.28,70.04c0.03-0.07,0.02-0.17,0-0.26C327.3,69.87,327.31,69.97,327.28,70.04z M327.23,73.54
					c0.03-0.08,0.06-0.17,0.09-0.25C327.29,73.37,327.26,73.46,327.23,73.54z M327.53,73.06c0.12-0.07,0.25-0.13,0.38-0.2
					C327.78,72.93,327.64,72.99,327.53,73.06z"/>
				<path class="st2" d="M323.75,52.18c1.42-3.2,2.89-6.38,4.34-9.57c0.03-0.07,0.06-0.15,0.09-0.22c0.07-0.16,0.13-0.32,0.19-0.48
					c0.27-0.74-0.17-1.47-0.93-1.38c-3.41,0.4-6.77-0.29-10.15-0.45c-2.68-0.13-5.35-0.4-8.03-0.58c-2.75-0.18-5.16-1.15-7.31-2.88
					c-4.6-3.71-9.22-7.4-13.83-11.1c-1.01-0.81-1.63-0.64-2.04,0.59c-0.02,0.06-0.04,0.12-0.06,0.18
					c-1.16,3.42-2.32,6.85-3.45,10.28c0,0.01-0.01,0.03-0.01,0.04c-0.85,2.57,0.23,5.38,2.66,6.93c3.61,2.31,7.4,4.3,11.33,6
					c1.27,0.55,2.57,1.02,3.86,1.53c5.29,2.11,10.68,3.9,16.31,4.88c0.9,0.16,1.76,0.16,2.56,0
					C321.25,55.56,322.83,54.26,323.75,52.18z"/>
			</g>
			<path class="st2" d="M330.39,79.03l2.03-21.21l0.38-0.98c1.27,0.09,2.51-0.64,3-1.89c0.49-1.25,0.07-2.63-0.93-3.42l5.86-15.01
				l-1.64-0.64l-5.86,15.01c-1.27-0.09-2.51,0.64-3,1.89s-0.07,2.63,0.93,3.42l-0.18,0.45L317.84,74c-0.6,0.79-0.28,1.93,0.65,2.29
				l0.11,0.04c0.63,0.25,1.35-0.07,1.6-0.7l2.74-7.02c0.13-0.32,0.48-0.52,0.81-0.41c0.34,0.12,0.52,0.5,0.39,0.83l-2.99,7.66
				c-0.12,0.3,0.03,0.64,0.33,0.75l0.06,0.02c0.28,0.11,0.6-0.03,0.71-0.31l2.35-6.02c0.13-0.32,0.48-0.52,0.81-0.41
				c0.34,0.12,0.52,0.5,0.39,0.83l-2.36,6.06c-0.11,0.28,0.03,0.6,0.31,0.71l0.01,0c0.33,0.13,0.7-0.03,0.82-0.36l1.68-4.3
				c0.13-0.32,0.48-0.52,0.81-0.41c0.34,0.12,0.52,0.5,0.39,0.83l-1.72,4.4c-0.11,0.29,0.03,0.62,0.32,0.74l0,0
				c0.32,0.12,0.68-0.03,0.8-0.35l1.06-2.72c0.13-0.33,0.51-0.5,0.85-0.35c0.32,0.14,0.44,0.53,0.32,0.85l-0.99,2.55
				c-0.15,0.38,0.03,0.82,0.41,0.98C329.35,80.54,330.31,79.96,330.39,79.03z"/>
		</g>
	</g>
	<g>
		<path class="st3" d="M122.13,128.92h-2.43v-2.87h6.35v9.26c0,1.85,0.49,3.12,2.46,3.12c2.71,0,4.34-2.72,4.34-5.51v-3.99h-2.4
			v-2.87h6.32v11.92c0,0.45,0.22,0.67,0.68,0.67h1.51v2.84h-3.88c-1.39,0-2.03-0.64-2.03-1.73v-0.57c0-0.21,0.03-0.39,0.03-0.51
			v-0.21H133c-0.18,0.51-1.82,3.39-5.73,3.39c-3.11,0-5.14-1.66-5.14-5.87V128.92z"/>
		<path class="st3" d="M141.29,138.61h2.28v-9.02c0-0.45-0.22-0.67-0.68-0.67h-1.76v-2.87h4.13c1.39,0,2.03,0.64,2.03,1.73v0.7
			c0,0.15,0,0.33-0.03,0.45c-0.03,0.09-0.03,0.15-0.03,0.21h0.06c0.15-0.48,1.88-3.45,5.79-3.45c3.36,0,5.27,1.76,5.27,5.87v7.05
			h2.28v2.87h-6.16v-9.14c0-1.91-0.52-3.15-2.5-3.15c-2.83,0-4.5,2.66-4.5,5.36v4.06h2.25v2.87h-8.44V138.61z"/>
		<path class="st3" d="M162.76,138.61h2.28v-9.68h-2.43v-2.87h6.35v12.56h2.25v2.87h-8.44V138.61z M165.01,120h3.94v3.42h-3.94V120z
			"/>
		<path class="st3" d="M172.19,126.05h7.55v2.87h-1.76l2.71,7.63c0.15,0.39,0.22,0.82,0.31,1.15l0.09,0.54h0.09l0.09-0.54
			c0.09-0.33,0.15-0.76,0.28-1.15l2.74-7.63h-1.79v-2.87h7.55v2.87h-1.88l-4.81,12.56h-4.5l-4.78-12.56h-1.91V126.05z"/>
		<path class="st3" d="M199.42,125.68c4.53,0,6.99,3.24,6.99,7.32c0,0.21,0,0.54-0.03,0.82l-0.06,0.48h-10.87
			c0.25,2.81,2.34,4.3,4.71,4.3c1.32,0,2.4-0.36,3.23-0.82c0.49-0.24,0.92-0.51,1.32-0.82l1.51,2.72c-0.46,0.39-1.05,0.73-1.69,1.06
			c-1.11,0.57-2.68,1.09-4.65,1.09c-5.21,0-8.44-3.72-8.44-8.08C191.44,129.01,194.71,125.68,199.42,125.68z M202.38,132.04
			c-0.09-2.15-1.36-3.39-3.05-3.39c-2,0-3.42,1.33-3.79,3.39H202.38z"/>
		<path class="st3" d="M208.97,138.61h2.28v-9.02c0-0.45-0.22-0.67-0.68-0.67h-1.76v-2.87h4.1c1.39,0,2.09,0.64,2.09,1.88v0.91
			c0,0.27,0,0.48-0.03,0.7c-0.03,0.09-0.03,0.18-0.03,0.27h0.06c0.74-2.21,2.56-3.96,4.99-3.96c0.22,0,0.37,0,0.49,0.03
			c0.09,0.03,0.15,0.03,0.22,0.03v3.78c-0.09,0-0.18,0-0.28-0.03c-0.22-0.03-0.4-0.03-0.68-0.03c-3.17,0-4.59,2.72-4.59,5.63v3.36
			h2.25v2.87h-8.44V138.61z"/>
		<path class="st3" d="M222.34,136.34h3.33v0.91c0,1.06,1.45,1.6,3.08,1.6c1.57,0,2.68-0.51,2.68-1.57c0-1.27-1.48-1.66-3.57-2.39
			c-2.28-0.82-4.96-1.82-4.96-4.78c0-3.27,3.36-4.42,6.19-4.42c2.28,0,5.67,0.88,5.67,3.21v1.97h-3.36v-0.88
			c0-0.82-0.92-1.27-2.31-1.27c-1.23,0-2.28,0.42-2.28,1.39c0,1.27,1.54,1.82,3.3,2.3c2.4,0.73,5.24,1.72,5.24,4.75
			c0,3.15-3.02,4.69-6.62,4.69c-2.83,0-6.38-1.21-6.38-3.72V136.34z"/>
		<path class="st3" d="M237.87,138.61h2.28v-9.68h-2.43v-2.87h6.35v12.56h2.25v2.87h-8.44V138.61z M240.12,120h3.94v3.42h-3.94V120z
			"/>
		<path class="st3" d="M255.52,125.68c1.73,0,2.8,0.51,3.51,1.09c0.4,0.33,0.74,0.7,1.02,1.09h0.06c0-0.09,0-0.21-0.03-0.3
			c-0.03-0.21-0.03-0.45-0.03-0.79v-3.9h-2.43V120h6.32v17.95c0,0.45,0.22,0.67,0.68,0.67h1.42v2.87h-3.7c-1.45,0-2-0.76-2-1.63
			v-0.18c0-0.18,0.03-0.36,0.06-0.51c0.03-0.09,0.03-0.15,0.03-0.18h-0.06c-0.28,0.51-0.65,1-1.11,1.42
			c-0.83,0.73-2.06,1.45-4.04,1.45c-4.19,0-6.87-3.33-6.87-8.08C248.34,128.86,251.27,125.68,255.52,125.68z M256.16,138.61
			c2.09,0,3.97-1.45,3.97-4.75c0-2.51-1.26-4.87-3.85-4.87c-2.22,0-4,1.72-4,4.78C252.28,136.7,253.85,138.61,256.16,138.61z"/>
		<path class="st3" d="M276.68,131.95h0.99v-0.51c0-1.97-1.26-2.66-2.9-2.66c-1.2,0-2.25,0.36-3.08,0.73
			c-0.49,0.21-0.96,0.48-1.36,0.76l-1.45-2.66c0.49-0.36,1.05-0.7,1.69-0.97c1.08-0.48,2.65-0.94,4.53-0.94
			c4.22,0,6.47,2.12,6.47,6.08v6.17c0,0.45,0.22,0.67,0.68,0.67h1.42v2.87h-3.7c-1.45,0-2-0.76-2-1.63v-0.18
			c0-0.24,0.03-0.42,0.06-0.58c0.03-0.09,0.03-0.15,0.03-0.21h-0.06c-0.28,0.54-0.65,1.03-1.11,1.48c-0.83,0.76-2,1.48-3.85,1.48
			c-2.71,0-5.21-1.54-5.21-4.69C267.84,132.43,274.16,131.95,276.68,131.95z M274.06,138.97c2.13,0,3.64-2.24,3.64-4.18v-0.51h-0.65
			c-1.57,0-5.27,0.24-5.27,2.57C271.78,138.03,272.62,138.97,274.06,138.97z"/>
		<path class="st3" d="M292.67,125.68c1.73,0,2.8,0.51,3.51,1.09c0.4,0.33,0.74,0.7,1.02,1.09h0.06c0-0.09,0-0.21-0.03-0.3
			c-0.03-0.21-0.03-0.45-0.03-0.79v-3.9h-2.43V120h6.32v17.95c0,0.45,0.22,0.67,0.68,0.67h1.42v2.87h-3.7c-1.45,0-2-0.76-2-1.63
			v-0.18c0-0.18,0.03-0.36,0.06-0.51c0.03-0.09,0.03-0.15,0.03-0.18h-0.06c-0.28,0.51-0.65,1-1.11,1.42
			c-0.83,0.73-2.06,1.45-4.04,1.45c-4.19,0-6.87-3.33-6.87-8.08C285.49,128.86,288.42,125.68,292.67,125.68z M293.32,138.61
			c2.09,0,3.97-1.45,3.97-4.75c0-2.51-1.26-4.87-3.85-4.87c-2.22,0-4,1.72-4,4.78C289.44,136.7,291.01,138.61,293.32,138.61z"/>
		<path class="st3" d="M313.19,125.68c4.53,0,6.99,3.24,6.99,7.32c0,0.21,0,0.54-0.03,0.82l-0.06,0.48h-10.87
			c0.25,2.81,2.34,4.3,4.71,4.3c1.32,0,2.4-0.36,3.23-0.82c0.49-0.24,0.92-0.51,1.32-0.82l1.51,2.72c-0.46,0.39-1.05,0.73-1.69,1.06
			c-1.11,0.57-2.68,1.09-4.65,1.09c-5.21,0-8.44-3.72-8.44-8.08C305.21,129.01,308.47,125.68,313.19,125.68z M316.14,132.04
			c-0.09-2.15-1.36-3.39-3.05-3.39c-2,0-3.42,1.33-3.79,3.39H316.14z"/>
	</g>
</g>
</svg>
