<?xml version="1.0" encoding="utf-8"?>
<!-- Generator: Adobe Illustrator 23.0.2, SVG Export Plug-In . SVG Version: 6.00 Build 0)  -->
<svg version="1.1" id="Layer_1" xmlns="http://www.w3.org/2000/svg" xmlns:xlink="http://www.w3.org/1999/xlink" x="0px" y="0px"
	 viewBox="0 0 150 150" style="enable-background:new 0 0 150 150;" xml:space="preserve">
<style type="text/css">
	.st0{fill:#DD1B55;}
	.st1{fill:#F0EFEF;}
</style>
<circle class="st0" cx="75.34" cy="75.15" r="74.34"/>
<g id="_x32_ZOPnI.tif">
	<g>
		<path class="st1" d="M26.22,101.15c0-15.65,0-31.3,0-46.95c0.07-0.32,0.16-0.63,0.19-0.95c0.55-5.73,2.6-10.83,6.59-15.02
			c6.32-6.65,14.09-10,23.31-9.98c12.64,0.03,25.29-0.01,37.93,0.04c4.21,0.02,8.34,0.6,12.3,2.15c8.94,3.5,18.02,12.76,17.95,25.3
			c-0.08,14.49,0.02,28.98-0.02,43.47c-0.02,6.39-2.21,12.04-6.39,16.84c-6.11,7.01-13.99,10.34-23.18,10.42
			c-13,0.11-26.01,0.07-39.02-0.07c-2.97-0.03-6.06-0.32-8.89-1.18c-10.7-3.24-17.71-10.2-20.31-21.26
			C26.48,103.04,26.38,102.09,26.22,101.15z M33.52,77.4c0.01,0,0.02,0,0.03,0c0,6.87,0.06,13.73-0.02,20.6
			c-0.05,4.55,1.07,8.66,3.88,12.29c2.71,3.51,6.06,6.1,10.29,7.54c2.75,0.93,5.59,1.3,8.47,1.3c12.68,0.04,25.35,0.01,38.03,0.05
			c4.49,0.02,8.67-0.96,12.58-3.23c6.65-3.87,10.31-9.54,10.35-17.27c0.08-14.33,0.09-28.66-0.01-42.98
			c-0.06-8.52-4.77-14.13-12-17.89c-3.28-1.71-6.9-2.19-10.56-2.19c-12.61-0.02-25.22,0.01-37.83-0.04
			c-4.1-0.02-8.02,0.69-11.66,2.57c-7.16,3.71-11.36,9.45-11.52,17.67C33.41,63,33.52,70.2,33.52,77.4z"/>
		<path class="st1" d="M75.58,52.82c12.76,0.13,23.07,10.43,22.94,22.91c-0.14,12.58-10.6,22.79-23.22,22.64
			C62.5,98.23,52.22,87.9,52.37,75.35C52.53,62.83,62.97,52.69,75.58,52.82z M75.49,60.14c-8.7-0.01-15.79,6.91-15.79,15.43
			c0,8.52,7.08,15.48,15.75,15.48c8.68,0,15.74-6.94,15.75-15.49C91.2,67.1,84.12,60.15,75.49,60.14z"/>
		<path class="st1" d="M106.05,50.93c0.01,2.72-2.19,5.02-4.81,5.05c-2.61,0.03-4.84-2.26-4.87-4.99c-0.03-2.77,2.21-5.12,4.86-5.1
			C103.84,45.9,106.04,48.2,106.05,50.93z"/>
	</g>
</g>
</svg>
