<?xml version="1.0" encoding="utf-8"?>
<!-- Generator: Adobe Illustrator 23.0.2, SVG Export Plug-In . SVG Version: 6.00 Build 0)  -->
<svg version="1.1" id="Layer_1" xmlns="http://www.w3.org/2000/svg" xmlns:xlink="http://www.w3.org/1999/xlink" x="0px" y="0px"
	 viewBox="0 0 150 150" style="enable-background:new 0 0 150 150;" xml:space="preserve">
<style type="text/css">
	.st0{fill:#DD1B55;}
	.st1{fill:#FFFFFF;}
</style>
<circle class="st0" cx="75.45" cy="75.15" r="74.34"/>
<path class="st1" d="M100.04,55.68c-0.36,4.15-0.68,7.95-1.02,11.74c-0.14,1.59-0.42,3.18-0.46,4.78c-0.04,1.45-0.76,1.67-2,1.64
	c-3.4-0.07-6.8,0.06-10.19-0.06c-1.65-0.06-2.1,0.51-2.09,2.12c0.05,15.13,0.03,30.27,0.03,45.4c0,2.9-0.01,2.91-2.82,2.91
	c-5.5,0-11-0.07-16.49,0.04c-1.88,0.04-2.44-0.58-2.43-2.44c0.06-15.13,0.03-30.27,0.03-45.4c0-2.59,0-2.59-2.66-2.59
	c-2.27,0-4.53,0-6.92,0c0-6.12,0-12.01,0-18.14c0.89,0,1.68,0.02,2.46,0c2.27-0.08,4.53-0.17,6.79-0.26
	c0.11-2.32,0.19-4.64,0.34-6.95c0.21-3.25,0.19-6.55,0.74-9.75c1.5-8.59,8.06-14.63,16.74-15.23c5.96-0.41,11.96-0.27,17.95-0.41
	c1.25-0.03,1.57,0.54,1.56,1.69c-0.04,4.88-0.06,9.76,0.01,14.64c0.02,1.44-0.58,1.79-1.87,1.77c-3.09-0.05-6.18-0.03-9.27-0.01
	c-2.73,0.02-4.08,1.34-4.13,4.1c-0.05,2.84,0.04,5.68-0.05,8.52c-0.05,1.45,0.44,1.95,1.91,1.92c3.83-0.09,7.66-0.03,11.49-0.03
	C98.35,55.68,99.01,55.68,100.04,55.68z"/>
</svg>
