<svg width="88" height="88" viewBox="0 0 88 88" fill="none" xmlns="http://www.w3.org/2000/svg">
<circle cx="44" cy="44" r="44" fill="#DB0F54"/>
<path d="M32.731 36.3408H23.853V65.0208H32.731V36.3408Z" fill="white"/>
<path d="M28.249 32.5858C29.2977 32.5945 30.3253 32.2916 31.2015 31.7153C32.0776 31.1391 32.7629 30.3156 33.1703 29.3493C33.5777 28.383 33.6889 27.3174 33.4897 26.2878C33.2906 25.2582 32.7901 24.311 32.0517 23.5663C31.3134 22.8216 30.3704 22.313 29.3426 22.1051C28.3147 21.8972 27.2482 21.9992 26.2785 22.3984C25.3087 22.7975 24.4794 23.4757 23.8957 24.3469C23.312 25.2182 23.0003 26.2431 23 27.2918C22.9945 28.6898 23.5443 30.0328 24.5285 31.0255C25.5128 32.0182 26.8511 32.5795 28.249 32.5858Z" fill="white"/>
<path d="M46.922 49.9659C46.922 45.9339 48.778 43.5319 52.331 43.5319C55.596 43.5319 57.164 45.8379 57.164 49.9659V65.0219H66V46.8619C66 39.1799 61.646 35.4619 55.565 35.4619C53.8377 35.438 52.1337 35.862 50.619 36.6925C49.1044 37.523 47.8306 38.7318 46.922 40.2009V36.3359H38.406V65.0169H46.922V49.9659Z" fill="white"/>
</svg>