<svg xmlns="http://www.w3.org/2000/svg" viewBox="0 0 66.64 66.64"><defs><style>.cls-1{fill:#db0f54;}.cls-2{fill:#fff;fill-rule:evenodd;}</style></defs><title>Asset 2</title><g id="Layer_2" data-name="Layer 2"><g id="Layer_1-2" data-name="Layer 1"><circle class="cls-1" cx="33.32" cy="33.32" r="33.32"/><path class="cls-2" d="M33.32,12.34a21,21,0,1,1-21,21A21,21,0,0,1,33.32,12.34Zm0,1.88a19.11,19.11,0,1,1-19.1,19.1A19.09,19.09,0,0,1,33.32,14.22Z"/><path class="cls-2" d="M45.79,39.47V47.1c3.66-3.77,6.32-8,6.3-13.44-.23-1-.8-1.22-1.73-.74-.14.77-.71,1-1.7.57-.57-1.87-2.38-2.21-4.26-2.49,1-.83,2.44-1.59,3.21.28,1,.31,1.5-.34,2.55.31.59.06,1.16,0,1.76.09-.91-8.25-2-4.94-6.72-6.55-1.93-2.41-2.38-.71-2.18,3.57-1.17.37-2.67,1.42-1,3.43C37.23,36.1,39.64,40.8,45.79,39.47Z"/><polygon class="cls-2" points="25.24 45.91 25.13 46.11 25.04 46.3 24.96 46.5 24.87 46.7 24.79 46.93 24.7 47.13 24.65 47.32 24.59 47.52 24.53 47.72 24.48 47.92 24.45 48.15 24.42 48.34 24.39 48.54 24.39 48.77 24.39 48.97 24.42 49.2 24.45 49.42 24.51 49.65 24.51 49.71 24.65 49.68 24.96 49.68 25.24 49.76 25.47 49.93 25.67 50.1 25.84 50.27 26.04 50.47 26.18 50.64 26.35 50.78 26.49 50.87 26.57 50.92 26.66 50.92 26.75 50.92 26.83 50.84 27 50.67 27.28 50.27 27.59 49.9 27.91 49.51 28.22 49.17 28.53 48.8 28.87 48.46 29.18 48.15 29.52 47.81 29.84 47.49 30.18 47.18 30.49 46.9 30.8 46.59 31.14 46.3 31.42 46.02 31.73 45.77 32.05 45.48 32.33 45.2 32.58 44.94 32.87 44.66 33.12 44.41 33.35 44.15 33.58 43.89 33.8 43.61 34 43.36 34.17 43.1 34.34 42.82 34.48 42.56 34.6 42.31 34.71 42.02 34.8 41.74 34.85 41.48 34.88 41.17 34.91 40.98 34.91 40.8 34.85 40.63 34.8 40.49 34.71 40.38 34.63 40.24 34.48 40.12 34.31 40.04 34.12 39.93 33.89 39.84 33.63 39.76 33.32 39.7 33.01 39.64 32.7 39.59 32.33 39.56 31.76 39.56 31.56 39.19 31.42 39.02 31.31 38.82 31.17 38.62 31.02 38.45 30.88 38.25 30.74 38.08 30.57 37.88 30.4 37.72 30.23 37.55 30.06 37.38 29.86 37.2 29.66 37.03 29.47 36.89 29.27 36.75 29.07 36.61 28.84 36.5 28.62 36.35 28.39 36.24 28.16 36.16 27.91 36.07 27.65 35.99 27.4 35.9 27.11 35.84 26.86 35.82 26.57 35.79 26.26 35.76 25.98 35.76 25.67 35.76 25.36 35.79 25.04 35.84 24.59 35.93 24.08 35.65 23.68 35.42 23.32 35.16 22.95 34.91 22.61 34.63 22.27 34.37 21.95 34.09 21.67 33.8 21.39 33.55 21.16 33.29 20.93 33.01 20.73 32.78 20.54 32.56 20.39 32.33 20.28 32.13 20.23 31.93 20.17 31.73 20.23 31.48 20.39 31.31 20.59 31.22 20.82 31.17 21.05 31.14 21.33 31.14 21.64 31.17 21.95 31.22 22.32 31.31 22.72 31.42 23.12 31.59 23.54 31.79 24.02 32.02 24.48 32.3 24.79 32.5 24.85 32.47 24.99 32.3 25.1 32.13 25.19 31.88 25.21 31.59 25.27 31.28 25.3 30.91 25.33 30.54 25.41 30.18 25.53 29.81 25.72 29.41 26.01 29.07 26.38 28.76 26.83 28.47 27.43 28.28 28.02 28.16 28.3 27.91 28.67 27.59 29.07 27.31 29.44 27.06 29.84 26.83 30.2 26.6 30.54 26.41 30.86 26.21 31.14 26.04 31.36 25.87 31.56 25.7 31.68 25.58 31.73 25.5 31.73 25.44 31.73 25.41 31.68 25.36 31.51 25.27 31.22 25.13 31 24.96 30.74 24.76 30.52 24.56 30.32 24.34 30.12 24.11 29.92 23.88 29.75 23.63 29.58 23.37 29.44 23.12 29.3 22.86 29.18 22.61 29.07 22.35 28.96 22.1 28.9 21.84 28.81 21.59 28.76 21.36 28.73 21.13 28.7 20.91 28.7 20.68 28.73 20.45 28.76 20.25 28.81 20.08 28.9 19.89 29.01 19.74 29.15 19.6 29.32 19.49 29.52 19.43 29.75 19.43 29.98 19.46 30.06 19.49 30.09 19.46 30.09 19.43 30 19.29 29.86 19.12 29.69 18.92 29.47 18.72 29.18 18.52 28.9 18.35 28.59 18.18 28.25 18.07 27.93 17.99 27.62 17.96 27.34 17.99 27.23 18.01 27.14 18.24 27 18.64 26.89 19.01 26.8 19.38 26.72 19.74 26.63 20.08 26.57 20.42 26.52 20.76 26.49 21.1 26.46 21.42 26.43 21.73 26.41 22.01 26.38 22.29 26.35 22.58 26.35 22.83 26.32 23.09 26.32 23.34 26.29 23.57 26.29 23.8 26.26 24 26.23 24.22 26.21 24.39 26.15 24.56 26.09 24.73 26.01 24.9 25.92 25.04 25.81 25.19 25.67 25.3 25.5 25.36 25.33 25.41 25.13 25.44 24.85 25.41 24.19 24.96 23.66 24.59 23.23 24.25 22.86 23.91 22.55 23.6 22.29 23.32 22.12 23.03 21.98 22.72 21.93 22.44 21.9 22.18 21.95 21.9 22.04 21.67 22.18 21.44 22.32 21.22 22.49 21.02 22.69 20.85 22.89 20.65 23.09 20.48 23.29 20.28 23.48 20.08 23.68 19.89 23.88 19.69 24.05 19.46 24.22 19.23 24.36 18.98 24.48 18.72 24.56 18.44 24.62 18.13 24.65 17.82 24.62 17.45 24.56 17.05 24.56 17.05 24.42 17.11 24.19 17.25 23.91 17.42 23.63 17.59 23.32 17.79 22.95 18.01 22.61 18.27 22.21 18.55 21.81 18.84 21.42 19.15 21.02 19.49 20.59 19.86 20.17 20.23 19.74 20.62 19.35 21.08 18.92 21.53 18.52 21.98 18.13 22.49 17.73 23 17.39 23.57 17.02 24.14 16.71 24.73 16.4 25.36 16.11 25.98 15.89 26.66 15.66 27.34 15.49 28.08 15.32 28.81 15.24 29.58 15.18 30.29 15.27 30.52 15.41 30.77 15.61 31.02 15.8 31.28 16 31.54 16.26 31.79 16.51 32.02 16.8 32.27 17.11 32.5 17.42 32.73 17.73 32.95 18.07 33.18 18.41 33.38 18.75 33.6 19.12 33.8 19.49 34 19.83 34.2 20.2 34.4 20.57 34.6 20.91 34.8 21.27 34.99 21.61 35.19 21.95 35.39 22.29 35.56 22.61 35.76 22.92 35.96 23.2 36.16 23.48 36.35 23.74 36.55 23.97 36.75 24.19 36.95 24.56 37.38 24.19 37.83 24.05 38.03 23.91 38.25 23.8 38.45 23.68 38.65 23.63 38.85 23.57 39.05 23.51 39.25 23.48 39.42 23.48 39.61 23.48 39.78 23.51 39.98 23.54 40.15 23.57 40.32 23.63 40.49 23.71 40.66 23.8 40.83 23.88 41 24 41.17 24.11 41.31 24.22 41.48 24.36 41.63 24.51 41.77 24.65 41.91 24.82 42.05 24.99 42.19 25.16 42.31 25.36 42.45 25.53 42.56 25.72 42.68 25.92 42.79 26.35 43.02 26.23 43.5 26.15 43.72 26.09 43.95 26.01 44.18 25.92 44.41 25.84 44.63 25.72 44.86 25.64 45.06 25.53 45.28 25.44 45.48 25.33 45.68 25.24 45.91"/><path class="cls-2" d="M27.68,15.52a26.71,26.71,0,0,1,13.1.79c1.61,4.11-5,4.71-6.67,7.35-2.72.08-1-6.86-5.24-6.95C28.08,16.68,27.34,16,27.68,15.52Z"/></g></g></svg>